<?xml version="1.0" standalone="no"?>
<!DOCTYPE svg PUBLIC "-//W3C//DTD SVG 20010904//EN"
 "http://www.w3.org/TR/2001/REC-SVG-20010904/DTD/svg10.dtd">
<svg version="1.0" xmlns="http://www.w3.org/2000/svg"
 width="512.000000pt" height="512.000000pt" viewBox="0 0 512.000000 512.000000"
 preserveAspectRatio="xMidYMid meet">

<g transform="translate(0.000000,512.000000) scale(0.100000,-0.100000)"
fill="#000000" stroke="none">
<path d="M0 2560 l0 -2560 2560 0 2560 0 0 2560 0 2560 -2560 0 -2560 0 0
-2560z m2765 1870 c551 -63 1055 -370 1362 -830 276 -415 376 -934 273 -1427
-56 -267 -200 -577 -363 -778 -63 -78 -215 -231 -292 -294 -434 -356 -1017
-497 -1572 -381 -472 98 -910 396 -1180 800 -276 415 -376 934 -273 1427 98
472 396 910 800 1180 248 165 567 280 855 306 89 8 305 6 390 -3z"/>
<path d="M2000 4184 c-119 -40 -276 -119 -400 -201 -160 -106 -357 -303 -463
-463 -275 -416 -358 -876 -246 -1363 74 -322 266 -651 508 -867 253 -227 552
-370 901 -432 110 -19 431 -17 545 5 140 26 168 36 162 55 -62 229 -280 1018
-283 1027 -3 7 19 21 54 33 128 47 265 167 330 289 62 117 89 298 61 408 -5
22 -12 51 -15 65 -20 106 -155 281 -268 349 -128 77 -305 110 -436 82 -45 -10
-56 -9 -65 2 -5 8 -73 245 -150 526 -77 281 -144 511 -150 511 -5 0 -44 -12
-85 -26z m-473 -1007 c-152 -187 -225 -431 -198 -659 10 -77 10 -103 0 -114
-16 -20 -43 -17 -64 6 -16 18 -19 38 -19 153 1 88 6 155 18 201 39 162 121
313 229 423 75 76 98 69 34 -10z m153 -18 c0 -6 -20 -36 -44 -67 -59 -76 -109
-171 -136 -257 -26 -85 -37 -254 -21 -338 7 -40 7 -65 0 -78 -10 -20 -44 -25
-67 -10 -34 21 -42 183 -16 309 31 152 100 280 212 395 56 57 72 67 72 46z
m1084 -172 c97 -49 170 -120 216 -213 19 -38 38 -71 41 -74 4 -3 6 -64 5 -136
-1 -130 -1 -130 -39 -208 -50 -100 -122 -173 -219 -221 -124 -61 -284 -61
-414 1 -88 42 -167 123 -216 221 -37 74 -42 94 -46 170 -6 103 9 177 51 257
54 103 142 178 259 222 55 21 78 24 174 22 105 -3 114 -5 188 -41z m301 -287
c-3 -5 -12 -10 -18 -10 -7 0 -6 4 3 10 19 12 23 12 15 0z"/>
<path d="M2449 2762 c-76 -39 -119 -111 -119 -197 1 -137 95 -235 227 -235
135 1 233 97 233 227 -1 182 -179 289 -341 205z"/>
</g>
</svg>
